<svg width="18" height="19" viewBox="0 0 18 19" fill="none" xmlns="http://www.w3.org/2000/svg">
<path d="M9.00003 0.831329C7.20982 0.831329 5.49293 1.54249 4.22706 2.80836C2.96119 4.07423 2.25003 5.79112 2.25003 7.58133V11.1836L0.803281 14.8031C0.757811 14.9169 0.740926 15.0401 0.754104 15.162C0.767281 15.2838 0.81012 15.4006 0.878871 15.502C0.947622 15.6035 1.04019 15.6866 1.14848 15.744C1.25677 15.8014 1.37747 15.8314 1.50003 15.8313H6.00003C6.00003 17.4941 7.33728 18.8313 9.00003 18.8313C10.6628 18.8313 12 17.4941 12 15.8313H16.5C16.6226 15.8314 16.7433 15.8014 16.8516 15.744C16.9599 15.6866 17.0524 15.6035 17.1212 15.502C17.1899 15.4006 17.2328 15.2838 17.246 15.162C17.2591 15.0401 17.2423 14.9169 17.1968 14.8031L15.75 11.1836V7.58133C15.75 5.79112 15.0389 4.07423 13.773 2.80836C12.5071 1.54249 10.7902 0.831329 9.00003 0.831329ZM10.5 15.8313C10.5 16.6653 9.83403 17.3313 9.00003 17.3313C8.16603 17.3313 7.50003 16.6653 7.50003 15.8313H10.5ZM3.75003 7.58133C3.75003 6.18894 4.30315 4.85359 5.28772 3.86902C6.27229 2.88445 7.60764 2.33133 9.00003 2.33133C10.3924 2.33133 11.7278 2.88445 12.7123 3.86902C13.6969 4.85359 14.25 6.18894 14.25 7.58133V11.3276C14.2499 11.4229 14.268 11.5173 14.3033 11.6058L15.3923 14.3313H2.60778L3.69678 11.6058C3.73195 11.5175 3.75002 11.4234 3.75003 11.3283V7.58133Z" fill="#6D6D6D"/>
</svg>
