<svg width="25" height="25" viewBox="0 0 25 25" fill="none" xmlns="http://www.w3.org/2000/svg">
<path d="M13.8269 3.08464C13.9059 2.94656 14.0267 2.83716 14.172 2.77227C14.3172 2.70738 14.4793 2.69035 14.6349 2.72364L14.7619 2.75064C15.291 2.86398 15.7904 3.08685 16.2281 3.4049C16.6658 3.72296 17.0321 4.12916 17.3033 4.59735C17.5745 5.06553 17.7447 5.58532 17.8028 6.12325C17.861 6.66118 17.8058 7.20532 17.6409 7.72064L17.0049 9.70664H18.1419C20.7869 9.70664 22.6549 12.2976 21.8179 14.8066L20.2589 19.4846C20.0432 20.1317 19.6293 20.6944 19.076 21.0932C18.5227 21.492 17.858 21.7066 17.1759 21.7066H11.8869C10.8577 21.7068 9.8596 21.3542 9.05891 20.7076C8.91685 21.0066 8.69289 21.2592 8.41305 21.4361C8.1332 21.6129 7.80894 21.7067 7.47791 21.7066H5.22791C4.76378 21.7066 4.31866 21.5223 3.99047 21.1941C3.66228 20.8659 3.47791 20.4208 3.47791 19.9566V11.4566C3.47791 10.4906 4.26191 9.70664 5.22791 9.70664H9.89791C9.94197 9.70663 9.98525 9.69497 10.0234 9.67284C10.0615 9.65071 10.093 9.61891 10.1149 9.58064L13.8269 3.08464ZM9.22791 18.8666L9.9109 19.4646C10.4579 19.9432 11.1601 20.2068 11.8869 20.2066H17.1759C17.5432 20.2066 17.9012 20.0909 18.1991 19.8761C18.4971 19.6613 18.7198 19.3581 18.8359 19.0096L20.3949 14.3326C20.5139 13.9756 20.5464 13.5955 20.4896 13.2235C20.4329 12.8515 20.2885 12.4983 20.0685 12.193C19.8485 11.8877 19.5591 11.6391 19.2241 11.4676C18.8891 11.2961 18.5182 11.2067 18.1419 11.2066H15.9779C15.8598 11.2066 15.7434 11.1787 15.6381 11.1252C15.5329 11.0716 15.4417 10.994 15.3721 10.8986C15.3025 10.8032 15.2565 10.6927 15.2377 10.5761C15.2189 10.4595 15.2278 10.3401 15.2639 10.2276L16.2119 7.26364C16.3949 6.69255 16.355 6.07338 16.1003 5.53046C15.8456 4.98754 15.395 4.56106 14.8389 4.33664L11.4169 10.3246C11.2639 10.5925 11.0428 10.8151 10.7761 10.97C10.5093 11.1249 10.2064 11.2065 9.89791 11.2066H9.22791V18.8666ZM7.72791 11.2066H5.22791C5.1616 11.2066 5.09801 11.233 5.05113 11.2799C5.00424 11.3268 4.97791 11.3903 4.97791 11.4566V19.9566C4.97791 20.0946 5.08991 20.2066 5.22791 20.2066H7.47791C7.54421 20.2066 7.6078 20.1803 7.65468 20.1334C7.70157 20.0865 7.72791 20.0229 7.72791 19.9566V11.2066Z" fill="#6D6D6D"/>
</svg>
