<svg width="24" height="24" viewBox="0 0 24 24" fill="none" xmlns="http://www.w3.org/2000/svg">
<path fill-rule="evenodd" clip-rule="evenodd" d="M11.856 4.96867C10.5966 4.96844 9.35929 5.29851 8.26741 5.92594C7.17552 6.55337 6.26729 7.4562 5.63338 8.54433C4.99946 9.63246 4.66203 10.8678 4.65476 12.1271C4.6475 13.3864 4.97065 14.6256 5.59196 15.721C6.01191 15.1752 6.55175 14.7333 7.16974 14.4295C7.78773 14.1256 8.46732 13.968 9.15596 13.9687H14.556C15.2446 13.968 15.9242 14.1256 16.5422 14.4295C17.1602 14.7333 17.7 15.1752 18.12 15.721C18.7413 14.6256 19.0644 13.3864 19.0572 12.1271C19.0499 10.8678 18.7125 9.63246 18.0785 8.54433C17.4446 7.4562 16.5364 6.55337 15.4445 5.92594C14.3526 5.29851 13.1153 4.96844 11.856 4.96867ZM19.0047 17.6371C19.1175 17.4901 19.2254 17.3395 19.3286 17.1853C20.3264 15.7027 20.8583 13.9557 20.8559 12.1687C20.8559 7.19797 16.8267 3.16867 11.856 3.16867C6.88526 3.16867 2.85597 7.19797 2.85597 12.1687C2.85313 14.1458 3.504 16.0683 4.70726 17.6371L4.70276 17.6533L5.02226 18.025C5.86636 19.0118 6.91441 19.8039 8.09417 20.3466C9.27393 20.8894 10.5573 21.1698 11.856 21.1687C12.0504 21.1687 12.2436 21.1627 12.4356 21.1507C14.0595 21.0483 15.6249 20.5053 16.9635 19.5802C17.6036 19.1385 18.1839 18.6158 18.6897 18.025L19.0092 17.6533L19.0047 17.6371ZM11.856 6.76867C11.1399 6.76867 10.4531 7.05314 9.94677 7.55949C9.44042 8.06583 9.15596 8.75259 9.15596 9.46867C9.15596 10.1848 9.44042 10.8715 9.94677 11.3779C10.4531 11.8842 11.1399 12.1687 11.856 12.1687C12.572 12.1687 13.2588 11.8842 13.7651 11.3779C14.2715 10.8715 14.556 10.1848 14.556 9.46867C14.556 8.75259 14.2715 8.06583 13.7651 7.55949C13.2588 7.05314 12.572 6.76867 11.856 6.76867Z" fill="#6D6D6D"/>
</svg>
