<svg width="19" height="18" viewBox="0 0 19 18" fill="none" xmlns="http://www.w3.org/2000/svg">
<path fill-rule="evenodd" clip-rule="evenodd" d="M9.85596 1.8C8.59664 1.79977 7.35929 2.12984 6.26741 2.75726C5.17552 3.38469 4.26729 4.28753 3.63338 5.37566C2.99946 6.46379 2.66203 7.69915 2.65476 8.95845C2.6475 10.2177 2.97065 11.4569 3.59196 12.5523C4.01191 12.0065 4.55175 11.5646 5.16974 11.2608C5.78773 10.9569 6.46732 10.7993 7.15596 10.8H12.556C13.2446 10.7993 13.9242 10.9569 14.5422 11.2608C15.1602 11.5646 15.7 12.0065 16.12 12.5523C16.7413 11.4569 17.0644 10.2177 17.0572 8.95845C17.0499 7.69915 16.7125 6.46379 16.0785 5.37566C15.4446 4.28753 14.5364 3.38469 13.4445 2.75726C12.3526 2.12984 11.1153 1.79977 9.85596 1.8ZM17.0047 14.4684C17.1175 14.3214 17.2254 14.1708 17.3286 14.0166C18.3264 12.534 18.8583 10.7871 18.8559 9C18.8559 4.0293 14.8267 0 9.85596 0C4.88526 0 0.855966 4.0293 0.855966 9C0.85313 10.9771 1.504 12.8996 2.70726 14.4684L2.70276 14.4846L3.02226 14.8563C3.86636 15.8432 4.91441 16.6352 6.09417 17.178C7.27393 17.7207 8.55735 18.0011 9.85596 18C10.0504 18 10.2436 17.994 10.4356 17.982C12.0595 17.8796 13.6249 17.3366 14.9635 16.4115C15.6036 15.9699 16.1839 15.4471 16.6897 14.8563L17.0092 14.4846L17.0047 14.4684ZM9.85596 3.6C9.13987 3.6 8.45312 3.88446 7.94677 4.39081C7.44042 4.89716 7.15596 5.58391 7.15596 6.3C7.15596 7.01608 7.44042 7.70284 7.94677 8.20919C8.45312 8.71554 9.13987 9 9.85596 9C10.572 9 11.2588 8.71554 11.7651 8.20919C12.2715 7.70284 12.556 7.01608 12.556 6.3C12.556 5.58391 12.2715 4.89716 11.7651 4.39081C11.2588 3.88446 10.572 3.6 9.85596 3.6Z" fill="#6D6D6D"/>
</svg>
